<?xml version="1.0" encoding="utf-8"?>
<!-- Generator: Adobe Illustrator 16.0.0, SVG Export Plug-In . SVG Version: 6.00 Build 0)  -->
<!DOCTYPE svg PUBLIC "-//W3C//DTD SVG 1.1//EN" "http://www.w3.org/Graphics/SVG/1.1/DTD/svg11.dtd">
<svg version="1.1" id="Layer_1" xmlns="http://www.w3.org/2000/svg" xmlns:xlink="http://www.w3.org/1999/xlink" x="0px" y="0px"
	 width="485.217px" height="279.844px" viewBox="0 0 485.217 279.844" enable-background="new 0 0 485.217 279.844"
	 xml:space="preserve">
<g>
	<rect x="253.856" y="241.404" fill-rule="evenodd" clip-rule="evenodd" fill="#414142" width="18.174" height="38.439"/>
	<rect x="53.129" y="241.404" fill-rule="evenodd" clip-rule="evenodd" fill="#414142" width="18.173" height="38.439"/>
	<path fill-rule="evenodd" clip-rule="evenodd" fill="#E6C3B4" d="M297.958,165.268c-1.992,3.968-22.155,24.935-22.155,24.935
		s-71.073,0.207-75.91-2.566c-4.836-2.773-20.825-12.943-22.17-12.32c-1.345,0.624-18.043,2.9-18.043,2.9
		s-19.176,12.612-16.813,15.519c2.362,2.906,10.099-1.922,10.099-1.922l7.462-4.813l7.698-0.414l-5.167,11.583
		c0,0,1.641,4.875,2.343,5.113c0.702,0.238,3.459,0.228,3.459,0.228l2.094,3.059l4.979,0.283c0,0,1.805,2.799,4.302,3.078
		s15.37,1.242,18.328-0.158c2.958-1.399,8.536-2.803,8.536-2.803s76.207,10.685,78.607,9.176
		c2.399-1.508,26.095-26.878,27.654-25.23C314.819,192.563,297.958,165.268,297.958,165.268z"/>
	<path fill-rule="evenodd" clip-rule="evenodd" fill="#E38A25" d="M283.3,177.102c-1.058,1.108,14.42,32.095,14.42,32.095
		s38.962-42.54,38.687-44.192s-2.203-41.302-2.203-41.302L283.3,177.102z"/>
	<path fill-rule="evenodd" clip-rule="evenodd" fill="#F89521" d="M361.324,107.596c-2.203,1.102-21.875,8.95-27.12,16.106
		c-12.765,17.415,7.984,88.1-0.794,156.142h77.019C425.43,185.878,411.768,122.255,361.324,107.596z"/>
	<path fill-rule="evenodd" clip-rule="evenodd" fill="#EFCABA" d="M327.183,92.726c5.291,18.517,7.341,33.805,6.059,44.882
		c6.207,1.013,41.451-21.248,31.388-26.985c-5.843-3.329-9.244-8.119-10.188-31.664L327.183,92.726z"/>
	<path fill-rule="evenodd" clip-rule="evenodd" fill="#FBD3C1" d="M279.614,33.726c0,0-10.741,30.929-11.129,34.045
		c-0.388,3.117,5.346,12.099,5.346,12.099s-8.542,10.205-8.268,11.578c0.274,1.372,10.256,5.704,10.256,5.704
		s3.103,12.247,11.187,18.963c8.084,6.715,31.507,3.635,38.862,1.01c23.885-8.522,40.409-30.881,41.019-58.357
		c0.444-20.026-18.266-33.038-36.531-36.747C312.089,18.312,279.614,33.726,279.614,33.726z"/>
	<path fill-rule="evenodd" clip-rule="evenodd" fill="#FCCEBB" d="M265.558,91.361c-0.002,0.031,0,0.061,0.005,0.086
		c0.274,1.372,10.256,5.704,10.256,5.704c0.581,0.256,1.238-0.789,1.651-1.477c0.412-0.688-2.892-1.722-4.818-2.548
		C270.73,92.304,265.59,91.367,265.558,91.361z"/>
	<path fill-rule="evenodd" clip-rule="evenodd" fill="#FCCEBB" d="M284.449,113.646c0.791,0.877,1.641,1.708,2.557,2.469
		c8.084,6.715,31.507,3.635,38.862,1.01c20.012-7.141,34.854-23.994,39.501-45.433c-2.462-3.713-5.854-5.109-5.854-5.109
		l-11.69,8.525C354.69,107.765,316.531,123.111,284.449,113.646z"/>
	<path fill-rule="evenodd" clip-rule="evenodd" fill="#A25742" d="M362.651,18.055c-4.616-23.667-56.768-7.906-71.765-9.319
		c-14.12-1.329-25.567-6.979-24.935-6.098c0.634,0.881,6.266,6.149,4.947,5.682s-7.912-2.098-10.862-4.891
		C257.087,0.636,256.551,0,256.551,0s1.977,15.497,2.821,19.764c0.845,4.266,2.548,7.13,1.854,6.272s-7.513-10.185-7.513-10.185
		s-1.012,7.741,5.852,18.608c6.864,10.867,15.753,13.284,15.753,13.284s27.011-13.275,39.375-12.805
		c12.363,0.472,16.748,5.809,17.67,8.842c0.92,3.032-0.938,23.31-0.123,29.641s4.116,4.958,3.597,2.673
		c-0.121-0.536,4.122-23.854,8.437-26.107c4.55-2.378,10.791,15.798,13.17,19.516c2.979,4.655,0.356,21.432,0.356,21.432
		C378.36,67.214,385.43,28.563,362.651,18.055z"/>
	<path fill-rule="evenodd" clip-rule="evenodd" fill="#AC5E4A" d="M274.448,47.447c0.557,0.211,0.87,0.297,0.87,0.297
		s27.011-13.275,39.375-12.805c12.363,0.472,16.748,5.809,17.67,8.842c0.92,3.032-0.938,23.31-0.123,29.641s4.116,4.958,3.597,2.673
		c-0.121-0.536,4.122-23.854,8.437-26.107c4.55-2.378,10.791,15.798,13.17,19.516c2.049,3.201,1.626,12.342,0.871,17.429
		c4.002-7.547,6.955-25.891,5.821-33.936c-1.515-10.738-14.18-32.766-14.318-33.454c-0.138-0.688-0.275,15.833-0.413,17.76
		c-0.138,1.928-7.297-18.035-7.297-18.035s0.964,9.5,0.551,16.246c-0.412,6.746-4.268,11.427-4.268,11.427
		c-2.338-22.714-30.135-26.632-31.251-31.94c-0.234-1.112,8.26,16.658,9.086,17.209s-3.855-0.275-10.739-2.616
		c-6.883-2.34-22.991-10.875-23.541-12.39c-0.551-1.515,8.122,18.86,8.122,18.86s-1.239,0-7.391-3.711
		c-6.15-3.712-18.354-20.794-18.354-20.794s0.137,3.58,2.753,11.427s8.261,16.658,10.042,17.989
		c1.782,1.331-14.998-8.628-15.687-9.315c-0.688-0.688,0.275,0.688,3.854,5.782C267.244,40.227,270.892,44.126,274.448,47.447z"/>
	<path fill-rule="evenodd" clip-rule="evenodd" fill="#FBD3C1" d="M303.593,180.423c-2.092,3.667-12.837,20.624-12.837,20.624
		s-72.002,2.404-76.456-0.474c-4.453-2.877-19.122-13.34-20.431-12.815c-1.31,0.523-17.28,1.844-17.28,1.844
		s-18.845,11.01-16.748,13.889c2.096,2.879,9.687-1.315,9.687-1.315l7.329-4.194l7.331-0.005l-0.003,0.006
		c-3.858,1.016-7.826,2.315-8.475,2.559c-1.048,0.393-14.794,12.698-14.794,13.026c0,0.326-0.393,1.309,3.469,1.637
		c3.862,0.327,4.975-1.244,5.368-1.376c0.393-0.131,8.515-6.29,8.515-6.29l5.779-1.966l-11.159,7.514l-7.087,7.673
		c2.881,4.177,10.596-1.368,12.749-4.536c1.14-0.868,7.796-3.375,7.611-2.013c-0.852,6.274,3.632,5.772,8.252,6.539
		c2.357,0.391,14.532,1.954,17.411,0.773c2.879-1.18,8.247-2.23,8.247-2.23s70.545,13.151,78.408,9.913s18.995-26.337,20.393-24.693
		S303.593,180.423,303.593,180.423z"/>
	<path fill-rule="evenodd" clip-rule="evenodd" fill="#F89521" d="M374.877,117.84c-1.979-2.226-7.416-12.857-21.621-1.135
		c-14.206,11.722-59.255,72.8-59.255,72.8l20.53,25.483c0,0,48.549-54.347,57.225-65.85S374.877,117.84,374.877,117.84z"/>
	<rect y="235.588" fill-rule="evenodd" clip-rule="evenodd" fill="#756451" width="326.985" height="13.746"/>
	<rect y="231.006" fill-rule="evenodd" clip-rule="evenodd" fill="#816B51" width="326.985" height="9.164"/>
	<path fill-rule="evenodd" clip-rule="evenodd" fill="#414142" d="M341.915,56.641c-2.763,0.505-56.662,19.364-56.662,19.364
		l-5.729-2.914l2.658-4.404c0,0,59.336-16.776,59.283-16.163S341.915,56.641,341.915,56.641z"/>
	<path fill-rule="evenodd" clip-rule="evenodd" fill="#414142" d="M282.181,68.687c-1.24,0.245-8.319,2.311-11.237,3.235
		c-1.218,0.385-2.51,0.367-1.736,2.615c0.941,2.738,2.859,8.203,4.548,12.322c3.624,8.84,16.355,9.695,12.669-6.931
		C285.398,75.302,282.181,68.687,282.181,68.687z"/>
	<path fill-rule="evenodd" clip-rule="evenodd" fill="#E7E7E7" d="M280.805,69.716c-1.402,0.319-6.092,1.47-8.807,2.625
		c-1.913,0.813-2.457,1.025-1.85,2.86c0.91,2.75,2.625,7.884,4.088,11.461c0.801,1.958,2.128,3.757,3.841,4.911
		c1.322,0.891,2.97,1.433,4.448,0.973c4.182-1.304,3.133-8.642,2.321-12.08C284.049,77.088,282.333,72.929,280.805,69.716z"/>
	<path fill-rule="evenodd" clip-rule="evenodd" fill="#FBD3C1" d="M352.288,44.82c5.809,1.343,9.519,9.212,8.285,17.575
		c-1.231,8.364-6.939,14.055-12.748,12.712c-5.809-1.344-9.519-9.212-8.286-17.575S346.479,43.478,352.288,44.82z"/>
	<path fill-rule="evenodd" clip-rule="evenodd" fill="#EAB096" d="M345.152,54.658c0.872-1.531,3.489-5.386,7.169-4.328
		c3.679,1.058,5.895,5.484,4.753,10.852s-3.39,11.369-7.648,12.073c-4.258,0.704-7.175-3.521-5.457-5.536
		c1.718-2.015,3.261-5.59,1.577-6.847c-1.685-1.258-2.861-1.234-2.499-2.563C343.408,56.98,345.184,54.601,345.152,54.658z"/>
	<path fill-rule="evenodd" clip-rule="evenodd" fill="#EEB69D" d="M345.152,54.658c0.782-1.374,2.969-4.615,6.065-4.506
		c3.014,1.547,4.692,5.605,3.668,10.421c-1.142,5.367-3.39,11.37-7.648,12.073c-0.435,0.072-0.855,0.092-1.259,0.068
		c-2.165-1.143-3.2-3.6-2.01-4.996c1.718-2.015,3.261-5.59,1.577-6.847c-1.685-1.258-2.861-1.234-2.499-2.563
		C343.408,56.98,345.184,54.601,345.152,54.658z"/>
	<rect x="231.229" y="228.562" fill-rule="evenodd" clip-rule="evenodd" fill="#E7E7E7" width="33.048" height="2.444"/>
	<path fill-rule="evenodd" clip-rule="evenodd" fill="#A25742" d="M265.241,201.717v0.564h4.362c2.569,0,4.671,2.103,4.671,4.672
		v8.897c0,2.569-2.102,4.671-4.671,4.671h-4.88c-0.443,1.32-1.153,2.494-2.053,3.434h-29.834c-1.577-1.646-2.57-4.012-2.57-6.629
		v-15.609H265.241L265.241,201.717z M265.241,204.45v12.876c0,0.347-0.018,0.689-0.052,1.026h4.414c1.376,0,2.502-1.126,2.502-2.502
		v-8.897c0-1.377-1.126-2.503-2.502-2.503H265.241z"/>
	<rect x="230.266" y="200.402" fill-rule="evenodd" clip-rule="evenodd" fill="#D1D2D3" width="34.975" height="1.314"/>
	<polygon fill-rule="evenodd" clip-rule="evenodd" fill="#D1D2D3" points="265.877,229.596 283.417,223.955 247.753,223.955 
		212.09,223.955 229.629,229.596 	"/>
	<rect x="231.229" y="228.562" fill-rule="evenodd" clip-rule="evenodd" fill="#AAACAC" width="16.524" height="2.444"/>
	<path fill-rule="evenodd" clip-rule="evenodd" fill="#8F4F3C" d="M232.836,223.955c-1.577-1.646-2.57-4.012-2.57-6.629v-15.609
		h17.488v22.238H232.836z"/>
	<rect x="230.266" y="200.402" fill-rule="evenodd" clip-rule="evenodd" fill="#B6B6B6" width="17.488" height="1.314"/>
	<polygon fill-rule="evenodd" clip-rule="evenodd" fill="#BDBDBD" points="247.753,223.955 212.09,223.955 229.629,229.596 
		247.753,229.596 	"/>
	<g>
		<path fill-rule="evenodd" clip-rule="evenodd" fill="#5E5F63" d="M27.502,117.426l64.566,108.507
			c1.186,1.994,3.789,2.654,5.783,1.468l0,0c1.994-1.187,2.655-3.789,1.468-5.783L34.753,113.111
			c-1.187-1.994-3.789-2.654-5.783-1.469l0,0C26.977,112.829,26.316,115.432,27.502,117.426z"/>
		<path fill-rule="evenodd" clip-rule="evenodd" fill="#4E4E51" d="M27.502,117.426l64.566,108.507
			c1.186,1.994,3.789,2.654,5.783,1.468l0,0c0.047-0.028,0.094-0.059,0.14-0.088l-69.021-115.67l0,0
			C26.977,112.829,26.316,115.432,27.502,117.426z"/>
		<rect x="109.623" y="221.591" fill-rule="evenodd" clip-rule="evenodd" fill="#595A5C" width="11.225" height="1.883"/>
		<rect x="121.714" y="221.591" fill-rule="evenodd" clip-rule="evenodd" fill="#595A5C" width="11.225" height="1.883"/>
		<rect x="133.805" y="221.591" fill-rule="evenodd" clip-rule="evenodd" fill="#595A5C" width="11.225" height="1.883"/>
		<rect x="145.896" y="221.591" fill-rule="evenodd" clip-rule="evenodd" fill="#595A5C" width="11.225" height="1.883"/>
		<path fill-rule="evenodd" clip-rule="evenodd" fill="#414142" d="M224.331,222.568H98.068c-2.321,0-4.219,1.898-4.219,4.219l0,0
			c0,2.32,1.898,4.219,4.219,4.219h126.263c2.32,0,4.219-1.898,4.219-4.219l0,0C228.549,224.467,226.651,222.568,224.331,222.568z"
			/>
		<rect x="185.499" y="225.866" fill-rule="evenodd" clip-rule="evenodd" fill="#373737" width="11.198" height="2.862"/>
		<rect x="200.519" y="225.866" fill-rule="evenodd" clip-rule="evenodd" fill="#373737" width="11.198" height="2.862"/>
		<path fill-rule="evenodd" clip-rule="evenodd" fill="#373737" d="M111.012,224.809h66.187c0.58,0,1.054,0.475,1.054,1.055v2.413
			c0,0.58-0.474,1.054-1.054,1.054h-66.187c-0.58,0-1.054-0.474-1.054-1.054v-2.413
			C109.958,225.283,110.432,224.809,111.012,224.809z"/>
	</g>
	<path fill-rule="evenodd" clip-rule="evenodd" fill="#E38A25" d="M314.532,214.988c0,0,8.348-9.345,18.739-21.104
		c2.177,26.057,3.97,56.261,0.138,85.96h33.139c-1.808-24.149-5.808-115.704-3.925-119.614c0.494-2.869-33.489,33.633-42.404,41.317
		c-0.695,0.601-1.388,1.138-2.072,1.617c-3.719,2.603-7.251,3.515-10.253,3.583l4.758,5.905L314.532,214.988z"/>
	<path fill-rule="evenodd" clip-rule="evenodd" fill="#EEBFAC" d="M285.252,76.005c0.478,1.341,0.901,2.702,1.172,3.924
		c1.98,8.931-0.777,12.817-4.314,13.132c5.049,0.798,7.727-3.346,8.096-7.159c0.412-4.268,0-8.123,0-8.123l41.973-16.174
		c0.022-0.612,0.045-1.228,0.068-1.844C316.01,65.242,285.252,76.005,285.252,76.005z"/>
	<path fill-rule="evenodd" clip-rule="evenodd" fill="#A15340" d="M332.247,59.761c-0.023,0.616-0.046,1.231-0.068,1.844
		l7.208-2.778c0.038-0.43,0.089-0.861,0.152-1.294c0.01-0.067,0.02-0.133,0.03-0.199C337.843,57.884,335.302,58.729,332.247,59.761z
		"/>
	<path fill-rule="evenodd" clip-rule="evenodd" fill="#414142" d="M457.459,90.094c14.148-3.354,26.347,0.991,27.758,16.51
		c0.137,1.51-32.726,80.504-35.158,112.939c-0.954,12.711-5.783,39.139-8.398,60.301h-38.353
		C410.148,231.138,418.615,99.305,457.459,90.094z"/>
	<path fill-rule="evenodd" clip-rule="evenodd" fill="#343639" d="M483.935,100.516c0.639,1.8,1.076,3.824,1.282,6.088
		c0.141,1.553-31.437,76.98-40.22,173.24h-20.693C429.418,227.406,436.041,116.185,483.935,100.516z"/>
	<path fill-rule="evenodd" clip-rule="evenodd" fill="#595A5C" d="M421.787,239.778c-6.139-0.396-166.704-6.057-129.73,22.387
		c3.446,2.651,30.183-4.773,60.998-5.248c35.914-0.553,76.55,5.557,79.639,5.248c5.74-0.573,10.333-6.026,7.749-14.638
		C437.86,238.917,421.787,239.778,421.787,239.778z"/>
	<path fill-rule="evenodd" clip-rule="evenodd" fill="#47474A" d="M331.258,249.662c-19.925,1.725-36.842,4.06-44.671,5.45
		c0.317,2.079,2.047,4.421,5.469,7.053c0.304,0.233,0.787,0.389,1.438,0.478c3.66-1.553,6.607-2.398,6.716-0.27
		c7.02-0.789,17.869-2.704,30.637-4.046c6.938-0.729,14.443-1.29,22.207-1.41c1.74-0.026,3.491-0.038,5.248-0.035
		c17.429,0.03,35.474,1.451,49.448,2.814c0.26,0.025,0.518,0.05,0.774,0.075c13.294,1.308,22.74,2.536,24.168,2.394
		c2.261-0.226,4.343-1.208,5.879-2.842c-5.416-5.125-15.742-8.26-28.617-10.009c-0.475-0.064-0.953-0.127-1.435-0.188
		c-14.91-1.881-33.027-1.984-50.839-1.208C348.641,248.313,339.681,248.933,331.258,249.662z"/>
</g>
</svg>
